<svg width="31" height="30" viewBox="0 0 31 30" fill="none" xmlns="http://www.w3.org/2000/svg">
<g clip-path="url(#clip0_185_7493)">
<path d="M29.8195 5.36639C29.5464 2.80795 27.5258 0.786926 24.9672 0.514099C18.5507 -0.170715 12.1154 -0.170715 5.69915 0.514099C3.14048 0.787154 1.11968 2.80795 0.84662 5.36639C0.161804 11.7826 0.161804 18.2181 0.84662 24.6343C1.11968 27.193 3.14048 29.2138 5.69893 29.4869C12.1152 30.1717 18.5507 30.1717 24.9672 29.4869C27.5258 29.2138 29.5464 27.193 29.8195 24.6343C30.5043 18.2181 30.5043 11.7829 29.8195 5.36639Z" fill="url(#paint0_radial_185_7493)"/>
<path d="M28.1877 6.45099C27.9456 4.18072 26.1525 2.38743 23.882 2.14504C18.1883 1.53759 12.4777 1.53759 6.78401 2.14504C4.51373 2.38743 2.72044 4.18072 2.47805 6.45099C1.8706 12.1447 1.8706 17.8553 2.47805 23.5487C2.72044 25.8192 4.51373 27.6125 6.78401 27.8546C12.4777 28.4623 18.1883 28.4623 23.8818 27.8546C26.1523 27.6125 27.9456 25.8192 28.1877 23.5487C28.7954 17.8553 28.7954 12.1447 28.1877 6.45099Z" fill="url(#paint1_linear_185_7493)"/>
<path d="M0.782227 24.0122C0.802826 24.2196 0.824112 24.4269 0.846314 24.6343C1.11937 27.1927 3.14017 29.2135 5.69885 29.4866C12.1151 30.1714 18.5506 30.1714 24.9668 29.4866C27.5255 29.2135 29.5461 27.1927 29.8192 24.6343C29.8414 24.4269 29.8626 24.2196 29.8835 24.0122H0.782227Z" fill="url(#paint2_linear_185_7493)"/>
<path d="M29.8191 24.6343C30.1871 21.1867 30.3569 17.7335 30.3295 14.2809L23.4722 7.42356C22.6155 6.44554 21.3642 5.83512 19.8938 5.78225C16.8701 5.6733 13.8367 5.67879 10.8124 5.7827C8.30069 5.86922 6.54425 7.55745 6.09381 10.0388C6.01439 10.4768 5.96678 10.9206 5.9043 11.3619V18.6362C5.93886 18.872 5.98967 19.1066 6.00546 19.3437C6.10617 20.853 6.72644 22.1457 7.71956 23.0202L14.6977 29.9982C18.1223 30.0222 21.547 29.8519 24.9668 29.4868C27.5254 29.2138 29.546 27.193 29.8191 24.6343Z" fill="url(#paint3_linear_185_7493)"/>
<path d="M29.8192 24.6341C29.5464 27.1924 27.5251 29.2136 24.9669 29.4864C21.5476 29.8513 18.1222 30.0218 14.6981 29.9978L7.73047 23.0301C8.53819 23.7372 9.59105 24.1677 10.8128 24.2137C13.8364 24.3272 16.8704 24.3242 19.894 24.2153C22.6286 24.1164 24.6076 22.0924 24.6929 19.3577C24.784 16.4541 24.784 13.543 24.6929 10.6394C24.654 9.37781 24.2111 8.26773 23.4769 7.42773L30.3299 14.2807C30.3569 17.7329 30.187 21.1865 29.8192 24.6341Z" fill="url(#paint4_linear_185_7493)"/>
<path d="M18.8734 11.7519C17.9949 10.7954 16.7345 10.1953 15.3335 10.1953C12.6798 10.1953 10.5283 12.3468 10.5283 15.0005C10.5283 16.4014 11.1284 17.6619 12.0849 18.5403L23.2025 29.6578C23.7909 29.6065 24.3794 29.5495 24.9674 29.4868C27.526 29.2138 29.5468 27.193 29.8199 24.6343C29.8826 24.0463 29.9396 23.4579 29.9909 22.8694L18.8734 11.7519Z" fill="url(#paint5_linear_185_7493)"/>
<path d="M30.2748 18.232L21.3273 9.28482C21.1186 9.01085 20.7897 8.83301 20.4187 8.83301C19.7874 8.83301 19.2754 9.34479 19.2754 9.97627C19.2754 10.3473 19.4532 10.6762 19.7272 10.8849L30.1148 21.2727C30.1853 20.2595 30.2386 19.2458 30.2748 18.232Z" fill="url(#paint6_linear_185_7493)"/>
<path d="M5.9043 11.3619C5.96678 10.9206 6.01439 10.4768 6.09381 10.0388C6.54402 7.55745 8.30069 5.86922 10.8124 5.7827C13.8367 5.67879 16.8701 5.6733 19.8938 5.78225C22.6276 5.88067 24.6074 7.90489 24.6928 10.6396C24.7837 13.5434 24.7837 16.4543 24.6928 19.3581C24.6074 22.0928 22.6283 24.1168 19.894 24.2155C16.8703 24.3246 13.8362 24.3274 10.8127 24.2139C8.07845 24.1111 6.18834 22.0823 6.00546 19.3435C5.98967 19.1066 5.93886 18.8718 5.9043 18.636C5.9043 16.2112 5.9043 13.7865 5.9043 11.3619ZM15.3352 22.5947C16.719 22.5947 18.1042 22.6362 19.4862 22.5851C21.653 22.5048 22.9858 21.2116 23.0364 19.0469C23.0991 16.3495 23.0991 13.6485 23.0364 10.9509C22.9858 8.78655 21.6521 7.46315 19.4862 7.41715C16.7371 7.35901 13.985 7.35947 11.2359 7.41715C9.08645 7.46224 7.74978 8.75885 7.69141 10.8994C7.61725 13.6308 7.61725 16.3671 7.69141 19.0986C7.74978 21.2389 9.08645 22.5055 11.2361 22.5851C12.6007 22.6359 13.9687 22.5947 15.3352 22.5947Z" fill="url(#paint7_linear_185_7493)"/>
<path d="M5.9043 11.3619C5.96678 10.9206 6.01439 10.4768 6.09381 10.0388C6.54402 7.55745 8.30069 5.86922 10.8124 5.7827C13.8367 5.67879 16.8701 5.6733 19.8938 5.78225C22.6276 5.88067 24.6074 7.90489 24.6928 10.6396C24.7837 13.5434 24.7837 16.4543 24.6928 19.3581C24.6074 22.0928 22.6283 24.1168 19.894 24.2155C16.8703 24.3246 13.8362 24.3274 10.8127 24.2139C8.07845 24.1111 6.18834 22.0823 6.00546 19.3435C5.98967 19.1066 5.93886 18.8718 5.9043 18.636C5.9043 16.2112 5.9043 13.7865 5.9043 11.3619ZM15.3352 22.5947C16.719 22.5947 18.1042 22.6362 19.4862 22.5851C21.653 22.5048 22.9858 21.2116 23.0364 19.0469C23.0991 16.3495 23.0991 13.6485 23.0364 10.9509C22.9858 8.78655 21.6521 7.46315 19.4862 7.41715C16.7371 7.35901 13.985 7.35947 11.2359 7.41715C9.08645 7.46224 7.74978 8.75885 7.69141 10.8994C7.61725 13.6308 7.61725 16.3671 7.69141 19.0986C7.74978 21.2389 9.08645 22.5055 11.2361 22.5851C12.6007 22.6359 13.9687 22.5947 15.3352 22.5947Z" fill="white"/>
<path d="M15.3325 10.1953C12.6788 10.1953 10.5273 12.3466 10.5273 15.0002C10.5273 17.6541 12.6788 19.8054 15.3325 19.8054C17.9864 19.8054 20.1377 17.6541 20.1377 15.0002C20.1377 12.3466 17.9864 10.1953 15.3325 10.1953ZM15.3325 18.151C13.5923 18.151 12.1817 16.7404 12.1817 15.0002C12.1817 13.26 13.5923 11.8494 15.3325 11.8494C17.0727 11.8494 18.4833 13.26 18.4833 15.0002C18.4833 16.7404 17.0727 18.151 15.3325 18.151Z" fill="white"/>
<path d="M21.5617 9.97627C21.5617 10.6075 21.0499 11.1193 20.4187 11.1193C19.7874 11.1193 19.2754 10.6075 19.2754 9.97627C19.2754 9.34479 19.7874 8.83301 20.4187 8.83301C21.0499 8.83301 21.5617 9.34479 21.5617 9.97627Z" fill="white"/>
</g>
<defs>
<radialGradient id="paint0_radial_185_7493" cx="0" cy="0" r="1" gradientUnits="userSpaceOnUse" gradientTransform="translate(6.48285 26.2181) scale(33.0848 33.0847)">
<stop stop-color="#FAE100"/>
<stop offset="0.0544" stop-color="#FADC04"/>
<stop offset="0.1167" stop-color="#FBCE0E"/>
<stop offset="0.1829" stop-color="#FCB720"/>
<stop offset="0.2514" stop-color="#FE9838"/>
<stop offset="0.3054" stop-color="#FF7950"/>
<stop offset="0.4922" stop-color="#FF1C74"/>
<stop offset="1" stop-color="#6C1CD1"/>
</radialGradient>
<linearGradient id="paint1_linear_185_7493" x1="11.8392" y1="13.0347" x2="-38.9844" y2="-15.5537" gradientUnits="userSpaceOnUse">
<stop stop-color="#A1B5D8" stop-opacity="0"/>
<stop offset="0.3094" stop-color="#90A2BD" stop-opacity="0.309804"/>
<stop offset="0.7554" stop-color="#7C8B9C" stop-opacity="0.756863"/>
<stop offset="1" stop-color="#748290"/>
</linearGradient>
<linearGradient id="paint2_linear_185_7493" x1="15.3328" y1="26.4826" x2="15.3328" y2="31.1588" gradientUnits="userSpaceOnUse">
<stop stop-color="#FAE100" stop-opacity="0"/>
<stop offset="0.3068" stop-color="#FCA800" stop-opacity="0.305882"/>
<stop offset="0.6275" stop-color="#FE7300" stop-opacity="0.627451"/>
<stop offset="0.8685" stop-color="#FF5200" stop-opacity="0.866667"/>
<stop offset="1" stop-color="#FF4500"/>
</linearGradient>
<linearGradient id="paint3_linear_185_7493" x1="13.6259" y1="13.2513" x2="6.20144" y2="5.82678" gradientUnits="userSpaceOnUse">
<stop stop-color="#833AB4" stop-opacity="0"/>
<stop offset="1" stop-color="#833AB4"/>
</linearGradient>
<linearGradient id="paint4_linear_185_7493" x1="20.8933" y1="27.4388" x2="17.1876" y2="9.96905" gradientUnits="userSpaceOnUse">
<stop stop-color="#833AB4" stop-opacity="0"/>
<stop offset="1" stop-color="#833AB4"/>
</linearGradient>
<linearGradient id="paint5_linear_185_7493" x1="22.3041" y1="21.9711" x2="7.41989" y2="7.08679" gradientUnits="userSpaceOnUse">
<stop stop-color="#833AB4" stop-opacity="0"/>
<stop offset="1" stop-color="#833AB4"/>
</linearGradient>
<linearGradient id="paint6_linear_185_7493" x1="23.4075" y1="12.9651" x2="18.4856" y2="8.04316" gradientUnits="userSpaceOnUse">
<stop stop-color="#833AB4" stop-opacity="0"/>
<stop offset="1" stop-color="#833AB4"/>
</linearGradient>
<linearGradient id="paint7_linear_185_7493" x1="21.2892" y1="9.08539" x2="9.15353" y2="21.2211" gradientUnits="userSpaceOnUse">
<stop stop-color="#833AB4"/>
<stop offset="0.0922" stop-color="#9C3495"/>
<stop offset="0.2927" stop-color="#DC2546"/>
<stop offset="0.392" stop-color="#FD1D1D"/>
<stop offset="0.5589" stop-color="#FC6831"/>
<stop offset="0.6887" stop-color="#FC9B40"/>
<stop offset="0.7521" stop-color="#FCAF45"/>
<stop offset="0.7806" stop-color="#FDB750"/>
<stop offset="0.8656" stop-color="#FECB6A"/>
<stop offset="0.9415" stop-color="#FFD87A"/>
<stop offset="1" stop-color="#FFDC80"/>
</linearGradient>
<clipPath id="clip0_185_7493">
<rect width="30.0001" height="30" fill="white" transform="translate(0.333008)"/>
</clipPath>
</defs>
</svg>
