<svg width="31" height="30" viewBox="0 0 31 30" fill="none" xmlns="http://www.w3.org/2000/svg">
<g clip-path="url(#clip0_185_7487)">
<path d="M24.9671 29.4869C18.5509 30.1717 12.1152 30.1717 5.69892 29.4869C3.14048 29.2138 1.11968 27.193 0.846619 24.6343C0.161804 18.2181 0.161804 11.7826 0.846619 5.36639C1.11968 2.80795 3.14048 0.787154 5.69892 0.514099C12.1152 -0.170715 18.5507 -0.170715 24.9669 0.514099C27.5256 0.787154 29.5464 2.80795 29.8194 5.36639C30.5043 11.7826 30.5043 18.2181 29.8194 24.6343C29.5464 27.193 27.5258 29.2138 24.9671 29.4869Z" fill="url(#paint0_linear_185_7487)"/>
<path d="M28.1877 6.45148C27.9455 4.1812 26.1525 2.38792 23.882 2.14553C18.1883 1.53808 12.4777 1.53808 6.78401 2.14553C4.51373 2.38792 2.72044 4.1812 2.47805 6.45148C1.8706 12.1451 1.8706 17.8557 2.47805 23.5492C2.72044 25.8197 4.51373 27.613 6.78401 27.8551C12.4777 28.4628 18.1883 28.4628 23.8817 27.8551C26.1522 27.613 27.9455 25.8197 28.1877 23.5492C28.7954 17.8557 28.7954 12.1451 28.1877 6.45148Z" fill="url(#paint1_linear_185_7487)"/>
<path d="M0.782227 24.0122C0.802826 24.2196 0.824112 24.4269 0.846314 24.6343C1.11937 27.1927 3.14017 29.2135 5.69884 29.4866C12.1151 30.1714 18.5506 30.1714 24.9668 29.4866C27.5255 29.2135 29.5461 27.1927 29.8191 24.6343C29.8413 24.4269 29.8626 24.2196 29.8834 24.0122H0.782227Z" fill="url(#paint2_linear_185_7487)"/>
<path d="M20.5023 4.99658C17.8884 4.99658 15.7697 7.11557 15.7697 9.7294V13.2645H13.2227V17.6414L15.7697 19.9226V29.9989C18.8371 29.984 21.9044 29.8135 24.9675 29.4867C27.5262 29.2136 29.5468 27.1928 29.8198 24.6342C30.3293 19.8602 30.4595 15.0756 30.2107 10.2961L24.9112 4.99658H20.5023Z" fill="url(#paint3_linear_185_7487)"/>
<path d="M15.7697 29.9989C17.5176 29.9905 19.2654 29.9312 21.0124 29.8213V17.6414H24.491L24.9112 13.2645H21.0124V10.4852C21.0124 9.8713 21.51 9.37371 22.1239 9.37371H24.9112V4.99658H20.5023C17.8884 4.99658 15.7697 7.11557 15.7697 9.7294V13.2645H13.2227V17.6414H15.7697V29.9989Z" fill="white"/>
</g>
<defs>
<linearGradient id="paint0_linear_185_7487" x1="10.2936" y1="4.21843" x2="17.8814" y2="20.4529" gradientUnits="userSpaceOnUse">
<stop stop-color="#3457A0"/>
<stop offset="1" stop-color="#3B5998"/>
</linearGradient>
<linearGradient id="paint1_linear_185_7487" x1="21.0238" y1="18.9106" x2="-5.20107" y2="0.891509" gradientUnits="userSpaceOnUse">
<stop stop-color="#3457A0" stop-opacity="0"/>
<stop offset="1" stop-color="#1F3F77"/>
</linearGradient>
<linearGradient id="paint2_linear_185_7487" x1="15.3327" y1="25.0709" x2="15.3327" y2="29.1305" gradientUnits="userSpaceOnUse">
<stop stop-color="#3457A0" stop-opacity="0"/>
<stop offset="1" stop-color="#1F3F77"/>
</linearGradient>
<linearGradient id="paint3_linear_185_7487" x1="34.7735" y1="24.7755" x2="13.951" y2="14.276" gradientUnits="userSpaceOnUse">
<stop stop-color="#3457A0" stop-opacity="0"/>
<stop offset="0.3251" stop-color="#2A4C8D" stop-opacity="0.32549"/>
<stop offset="0.7045" stop-color="#22427D" stop-opacity="0.705882"/>
<stop offset="1" stop-color="#1F3F77"/>
</linearGradient>
<clipPath id="clip0_185_7487">
<rect width="30.0001" height="30" fill="white" transform="translate(0.333008)"/>
</clipPath>
</defs>
</svg>
