<svg width="31" height="30" viewBox="0 0 31 30" fill="none" xmlns="http://www.w3.org/2000/svg">
<g clip-path="url(#clip0_185_7512)">
<path d="M24.9671 29.4864C18.5508 30.1712 12.1152 30.1712 5.69891 29.4864C3.14047 29.2133 1.11967 27.1925 0.846618 24.6338C0.161804 18.2176 0.161804 11.7821 0.846618 5.3659C1.11967 2.80746 3.14047 0.786666 5.69891 0.51361C12.1152 -0.171203 18.5506 -0.171203 24.9669 0.51361C27.5255 0.786666 29.5463 2.80746 29.8194 5.3659C30.5042 11.7821 30.5042 18.2176 29.8194 24.6338C29.5463 27.1925 27.5258 29.2133 24.9671 29.4864Z" fill="url(#paint0_linear_185_7512)"/>
<path d="M28.1877 6.45099C27.9455 4.18072 26.1524 2.38743 23.8819 2.14504C18.1883 1.53759 12.4777 1.53759 6.784 2.14504C4.51372 2.38743 2.72044 4.18072 2.47805 6.45099C1.8706 12.1447 1.8706 17.8553 2.47805 23.5487C2.72044 25.8192 4.51372 27.6125 6.784 27.8546C12.4777 28.4623 18.1883 28.4623 23.8817 27.8546C26.1522 27.6125 27.9455 25.8192 28.1877 23.5487C28.7953 17.8553 28.7953 12.1447 28.1877 6.45099Z" fill="url(#paint1_linear_185_7512)"/>
<path d="M0.782227 24.0122C0.802826 24.2196 0.824112 24.4269 0.846313 24.6343C1.11937 27.1927 3.14017 29.2135 5.69883 29.4866C12.1151 30.1714 18.5505 30.1714 24.9668 29.4866C27.5255 29.2135 29.546 27.1927 29.8191 24.6343C29.8413 24.4269 29.8626 24.2196 29.8834 24.0122H0.782227Z" fill="url(#paint2_linear_185_7512)"/>
<path d="M29.4963 25.9904L10.1366 6.63049C9.70421 6.0663 9.02397 5.70215 8.25836 5.70215C6.95236 5.70215 5.89355 6.76073 5.89355 8.06672C5.89355 8.83256 6.25793 9.5128 6.82213 9.94493L26.1146 29.2376C27.6739 28.7187 28.9168 27.5205 29.4963 25.9904Z" fill="url(#paint3_linear_185_7512)"/>
<path d="M10.2442 11.9829H6.27148V24.2981L11.9084 29.935C16.2622 30.0998 20.6189 29.9508 24.9668 29.4866C25.7269 29.4056 26.4389 29.1692 27.0725 28.8112L10.2442 11.9829Z" fill="url(#paint4_linear_185_7512)"/>
<path d="M23.736 13.0144C23.0093 12.2177 21.9631 11.7178 20.8002 11.7178C18.9606 11.7178 17.7734 12.3639 17.0669 12.9638L16.2884 11.9828H12.6279V24.298L18.2818 29.9519C20.5115 29.8793 22.7404 29.7241 24.9672 29.4865C27.5258 29.2135 29.5464 27.1927 29.8195 24.6343C30.0021 22.9236 30.1356 21.2116 30.2207 19.4991L23.736 13.0144Z" fill="url(#paint5_linear_185_7512)"/>
<path d="M6.27246 11.9829H10.2449V24.2981H6.27246V11.9829Z" fill="white"/>
<path d="M20.8002 11.7178C17.889 11.7178 16.6102 13.3357 16.2884 13.8283V11.9828H12.6279V24.298H16.6006V18.112C16.6006 16.3245 17.4235 14.934 18.9842 14.934C20.5447 14.934 20.8002 16.6648 20.8002 18.7932V24.298H24.7729V15.6905C24.7729 13.4964 22.9942 11.7178 20.8002 11.7178Z" fill="white"/>
<path d="M10.6229 8.06695C10.6229 9.37295 9.56436 10.4315 8.25836 10.4315C6.95236 10.4315 5.89355 9.37295 5.89355 8.06695C5.89355 6.76095 6.95236 5.70215 8.25836 5.70215C9.56436 5.70215 10.6229 6.76095 10.6229 8.06695Z" fill="white"/>
</g>
<defs>
<linearGradient id="paint0_linear_185_7512" x1="10.2936" y1="4.21794" x2="17.8814" y2="20.4524" gradientUnits="userSpaceOnUse">
<stop stop-color="#0077B5"/>
<stop offset="1" stop-color="#0066B2"/>
</linearGradient>
<linearGradient id="paint1_linear_185_7512" x1="21.6776" y1="18.4035" x2="-21.9084" y2="-4.97771" gradientUnits="userSpaceOnUse">
<stop stop-color="#0066B2" stop-opacity="0"/>
<stop offset="1" stop-color="#07485E"/>
</linearGradient>
<linearGradient id="paint2_linear_185_7512" x1="15.3327" y1="24.3651" x2="15.3327" y2="30.635" gradientUnits="userSpaceOnUse">
<stop stop-color="#0066B2" stop-opacity="0"/>
<stop offset="1" stop-color="#07485E"/>
</linearGradient>
<linearGradient id="paint3_linear_185_7512" x1="16.233" y1="16.0415" x2="5.01596" y2="4.82451" gradientUnits="userSpaceOnUse">
<stop stop-color="#0066B2" stop-opacity="0"/>
<stop offset="1" stop-color="#07485E"/>
</linearGradient>
<linearGradient id="paint4_linear_185_7512" x1="22.8182" y1="26.463" x2="0.229997" y2="15.8748" gradientUnits="userSpaceOnUse">
<stop stop-color="#0066B2" stop-opacity="0"/>
<stop offset="1" stop-color="#07485E"/>
</linearGradient>
<linearGradient id="paint5_linear_185_7512" x1="28.3134" y1="28.7846" x2="12.5774" y2="13.0486" gradientUnits="userSpaceOnUse">
<stop stop-color="#0066B2" stop-opacity="0"/>
<stop offset="1" stop-color="#07485E"/>
</linearGradient>
<clipPath id="clip0_185_7512">
<rect width="30" height="30" fill="white" transform="translate(0.333008)"/>
</clipPath>
</defs>
</svg>
