<svg width="31" height="30" viewBox="0 0 31 30" fill="none" xmlns="http://www.w3.org/2000/svg">
<g clip-path="url(#clip0_185_7506)">
<path d="M24.9671 29.4869C18.5509 30.1717 12.1152 30.1717 5.69892 29.4869C3.14048 29.2138 1.11968 27.193 0.846619 24.6343C0.161804 18.2181 0.161804 11.7826 0.846619 5.36639C1.11968 2.80795 3.14048 0.787154 5.69892 0.514099C12.1152 -0.170715 18.5507 -0.170715 24.9669 0.514099C27.5256 0.787154 29.5464 2.80795 29.8194 5.36639C30.5043 11.7826 30.5043 18.2181 29.8194 24.6343C29.5464 27.193 27.5258 29.2138 24.9671 29.4869Z" fill="url(#paint0_linear_185_7506)"/>
<path d="M28.1877 6.45148C27.9455 4.1812 26.1525 2.38792 23.882 2.14553C18.1883 1.53808 12.4777 1.53808 6.78401 2.14553C4.51373 2.38792 2.72044 4.1812 2.47805 6.45148C1.8706 12.1451 1.8706 17.8557 2.47805 23.5492C2.72044 25.8197 4.51373 27.613 6.78401 27.8551C12.4777 28.4628 18.1883 28.4628 23.8817 27.8551C26.1523 27.613 27.9455 25.8197 28.1877 23.5492C28.7954 17.8557 28.7954 12.1451 28.1877 6.45148Z" fill="url(#paint1_linear_185_7506)"/>
<path d="M0.782227 24.0122C0.802826 24.2196 0.824112 24.4269 0.846314 24.6343C1.11937 27.1927 3.14017 29.2135 5.69884 29.4866C12.1151 30.1714 18.5506 30.1714 24.9668 29.4866C27.5255 29.2135 29.5461 27.1927 29.8191 24.6343C29.8413 24.4269 29.8626 24.2196 29.8835 24.0122H0.782227Z" fill="url(#paint2_linear_185_7506)"/>
<path d="M30.3264 13.946L24.0992 7.71909C23.4014 8.11803 22.7864 8.33935 22.3231 8.46204C22.0626 8.53184 21.85 8.56984 21.6971 8.59067C20.9949 7.87083 20.0144 7.42383 18.929 7.42383C16.7935 7.42383 15.062 9.15509 15.062 11.291C15.062 11.3681 15.0641 11.4444 15.0691 11.5204C15.0794 11.7055 15.103 11.8875 15.1394 12.0644C14.2479 12.0511 11.3503 11.8131 8.58673 9.44417C8.58651 9.44417 8.58651 9.44394 8.58651 9.44394H8.58628L7.28302 8.14046C7.28302 8.14046 5.75409 10.809 8.00194 12.8339C8.10059 12.944 8.20908 13.0527 8.32787 13.1596C8.33725 13.1701 8.3471 13.1804 8.35648 13.191C8.06145 13.171 7.17407 13.0827 6.66046 12.7199C6.66046 12.7199 6.55724 14.3509 7.91611 15.5516L9.01337 16.6583C8.6792 16.686 8.30956 16.6793 8.05252 16.5667C8.05252 16.5667 8.28003 17.5328 9.1594 18.306L10.6966 19.8512C9.7744 20.3884 8.1601 21.0606 6.03516 20.8889L15.36 30.0003C18.5639 29.9993 21.7678 29.8281 24.9669 29.4866C27.5256 29.2136 29.5464 27.1928 29.8194 24.6344C30.1992 21.0752 30.3678 17.5102 30.3264 13.946Z" fill="url(#paint3_linear_185_7506)"/>
<path d="M24.6309 9.22101C23.9672 9.56822 22.9674 9.72867 22.636 9.7749C22.6332 9.75888 22.6305 9.74354 22.6277 9.72821C23.7545 9.03126 24.0995 7.71909 24.0995 7.71909C23.4016 8.11803 22.7866 8.33935 22.3233 8.46204C22.0629 8.53184 21.8502 8.56961 21.6973 8.59067C20.9951 7.87061 20.0146 7.42383 18.9292 7.42383C16.7938 7.42383 15.0623 9.15486 15.0623 11.291C15.0623 11.3679 15.0643 11.4444 15.0694 11.5201C15.0797 11.7053 15.1032 11.8872 15.1396 12.0642C14.106 12.0488 10.375 11.7318 7.28325 8.14046C7.28325 8.14046 5.5616 11.1443 8.45604 13.1962C8.45604 13.1962 7.28325 13.1596 6.66069 12.7199C6.66069 12.7199 6.47759 15.6144 9.81125 16.5299C9.81125 16.5299 8.63915 16.8233 8.05252 16.5667C8.05252 16.5667 8.63892 19.0579 11.5698 19.2414C11.5698 19.2414 9.4677 21.1659 6.03516 20.8889C7.72339 21.9578 9.72497 22.5765 11.871 22.5765C17.905 22.5765 22.7967 17.6851 22.7967 11.651C22.7967 11.5757 22.796 11.5004 22.7944 11.4251C22.796 11.3805 22.7967 11.3361 22.7967 11.291C22.7967 11.2597 22.796 11.2283 22.7955 11.1969C23.9111 10.4535 24.6309 9.22101 24.6309 9.22101Z" fill="white"/>
</g>
<defs>
<linearGradient id="paint0_linear_185_7506" x1="10.2936" y1="4.21843" x2="17.8814" y2="20.4529" gradientUnits="userSpaceOnUse">
<stop stop-color="#00C3FF"/>
<stop offset="1" stop-color="#00B0ED"/>
</linearGradient>
<linearGradient id="paint1_linear_185_7506" x1="21.6777" y1="18.404" x2="-21.9084" y2="-4.9773" gradientUnits="userSpaceOnUse">
<stop stop-color="#00B0ED" stop-opacity="0"/>
<stop offset="1" stop-color="#00A2CE"/>
</linearGradient>
<linearGradient id="paint2_linear_185_7506" x1="15.3327" y1="25.6281" x2="15.3327" y2="29.5591" gradientUnits="userSpaceOnUse">
<stop stop-color="#00B0ED" stop-opacity="0"/>
<stop offset="1" stop-color="#00A2CE"/>
</linearGradient>
<linearGradient id="paint3_linear_185_7506" x1="29.0098" y1="28.2467" x2="14.354" y2="13.5908" gradientUnits="userSpaceOnUse">
<stop stop-color="#00B0ED" stop-opacity="0"/>
<stop offset="1" stop-color="#00A2CE"/>
</linearGradient>
<clipPath id="clip0_185_7506">
<rect width="30.0001" height="30" fill="white" transform="translate(0.333008)"/>
</clipPath>
</defs>
</svg>
