<svg width="45" height="45" viewBox="0 0 45 45" fill="none" xmlns="http://www.w3.org/2000/svg">
<g clip-path="url(#clip0_322_6456)">
<path d="M39.6709 25.027L38.6624 26.0908C37.9007 26.894 37.5421 27.998 37.6861 29.0957L37.8767 30.5477C38.1309 32.4846 36.8246 34.2815 34.9038 34.6371L33.4659 34.9033C32.3753 35.1051 31.4342 35.7891 30.9057 36.7642L30.2113 38.0451C29.2792 39.7645 27.1633 40.4518 25.3988 39.6085L24.0841 38.9802C23.0825 38.5015 21.9181 38.5015 20.9167 38.9802L19.6021 39.6085C17.8375 40.4518 15.7216 39.7645 14.7895 38.0451L14.0951 36.7642C13.5665 35.7891 12.6256 35.1051 11.535 34.9033L10.097 34.6371C8.17621 34.2815 6.86988 32.4846 7.12409 30.5477L7.31468 29.0958C7.45877 27.9982 7.10009 26.8942 6.33844 26.0908L5.32974 25.027C3.98644 23.6101 3.98644 21.3899 5.32974 19.973L6.33827 18.9093C7.09991 18.106 7.45859 17.002 7.3145 15.9043L7.12391 14.4523C6.86971 12.5156 8.17603 10.7186 10.0968 10.363L11.5348 10.0968C12.6254 9.8949 13.5664 9.2109 14.0949 8.23581L14.7894 6.9549C15.7215 5.23555 17.8374 4.54819 19.6019 5.39155L20.9166 6.01987C21.9181 6.49855 23.0825 6.49855 24.084 6.01987L25.3986 5.39155C27.1631 4.54819 29.279 5.23555 30.2111 6.9549L30.9055 8.23581C31.4342 9.2109 32.3751 9.8949 33.4657 10.0968L34.9037 10.363C36.8244 10.7186 38.1308 12.5155 37.8766 14.4523L37.686 15.9043C37.5419 17.0018 37.9006 18.1058 38.6622 18.9092L39.6707 19.973C41.0142 21.3899 41.0142 23.6101 39.6709 25.027Z" fill="url(#paint0_linear_322_6456)"/>
<path d="M22.5 36.4239C30.1899 36.4239 36.4238 30.1901 36.4238 22.5002C36.4238 14.8103 30.1899 8.57635 22.5 8.57635C14.8101 8.57635 8.57617 14.8103 8.57617 22.5002C8.57617 30.1901 14.8101 36.4239 22.5 36.4239Z" fill="url(#paint1_linear_322_6456)"/>
<path d="M8.57617 22.5002C8.57617 30.1901 14.8101 36.424 22.5 36.424C30.1898 36.424 36.4238 30.1901 36.4238 22.5002C36.4238 22.4286 36.4221 22.3574 36.421 22.2861H8.57891C8.57785 22.3574 8.57617 22.4286 8.57617 22.5002Z" fill="url(#paint2_linear_322_6456)"/>
<path d="M22.5008 0C21.7495 0 21.1406 0.609 21.1406 1.36015V4.18853C21.1406 4.93976 21.7496 5.54868 22.5008 5.54868C23.252 5.54868 23.8609 4.93968 23.8609 4.18853V1.36015C23.8609 0.609 23.252 0 22.5008 0Z" fill="url(#paint3_linear_322_6456)"/>
<path d="M22.5008 45.0001C21.7495 45.0001 21.1406 44.3911 21.1406 43.6399V40.8116C21.1406 40.0603 21.7496 39.4514 22.5008 39.4514C23.252 39.4514 23.8609 40.0604 23.8609 40.8116V43.6399C23.8609 44.3911 23.252 45.0001 22.5008 45.0001Z" fill="url(#paint4_linear_322_6456)"/>
<path d="M35.6379 4.23364C35.028 3.79503 34.1781 3.93382 33.7395 4.5437L32.0881 6.83994C31.6495 7.44982 31.7883 8.2997 32.3981 8.73832C33.008 9.17694 33.8579 9.03814 34.2965 8.42826L35.9479 6.13203C36.3865 5.52214 36.2478 4.67226 35.6379 4.23364Z" fill="url(#paint5_linear_322_6456)"/>
<path d="M9.36298 40.7664C8.7531 40.3278 8.6143 39.4778 9.05292 38.868L10.7043 36.5718C11.1429 35.9619 11.9929 35.8231 12.6027 36.2617C13.2126 36.7003 13.3514 37.5503 12.9128 38.1601L11.2614 40.4563C10.8227 41.0662 9.97277 41.205 9.36298 40.7664Z" fill="url(#paint6_linear_322_6456)"/>
<path d="M43.8314 15.3414C43.5924 14.6292 42.8213 14.2457 42.1092 14.4846L39.4278 15.3845C38.7156 15.6235 38.3321 16.3946 38.571 17.1068C38.81 17.8189 39.5811 18.2025 40.2933 17.9634L42.9747 17.0635C43.6868 16.8246 44.0704 16.0535 43.8314 15.3414Z" fill="url(#paint7_linear_322_6456)"/>
<path d="M1.17067 29.6589C0.931643 28.9468 1.3152 28.1757 2.02735 27.9367L4.70873 27.0368C5.42088 26.7977 6.19197 27.1813 6.431 27.8934C6.67003 28.6056 6.28647 29.3767 5.57432 29.6157L2.89294 30.5157C2.18079 30.7546 1.4097 30.3711 1.17067 29.6589Z" fill="url(#paint8_linear_322_6456)"/>
<path d="M9.36298 4.23358C9.97286 3.79497 10.8227 3.93376 11.2614 4.54364L12.9128 6.83988C13.3514 7.44976 13.2126 8.29964 12.6027 8.73826C11.9928 9.17688 11.1429 9.03808 10.7043 8.4282L9.05292 6.13197C8.6143 5.52208 8.7531 4.6722 9.36298 4.23358Z" fill="url(#paint9_linear_322_6456)"/>
<path d="M35.6379 40.7664C36.2478 40.3278 36.3865 39.4778 35.9479 38.868L34.2965 36.5718C33.8579 35.9619 33.0079 35.8231 32.3981 36.2617C31.7883 36.7003 31.6495 37.5503 32.0881 38.1601L33.7395 40.4563C34.1781 41.0662 35.0281 41.205 35.6379 40.7664Z" fill="url(#paint10_linear_322_6456)"/>
<path d="M1.17063 15.3413C1.40966 14.6292 2.18075 14.2456 2.89289 14.4845L5.57428 15.3844C6.28642 15.6235 6.66998 16.3946 6.43095 17.1067C6.19192 17.8189 5.42084 18.2024 4.70869 17.9634L2.02731 17.0635C1.31525 16.8245 0.931689 16.0534 1.17063 15.3413Z" fill="url(#paint11_linear_322_6456)"/>
<path d="M43.8314 29.6589C44.0704 28.9467 43.6869 28.1756 42.9747 27.9366L40.2933 27.0367C39.5812 26.7977 38.8101 27.1812 38.5711 27.8934C38.332 28.6055 38.7156 29.3766 39.4278 29.6156L42.1092 30.5156C42.8213 30.7546 43.5924 30.371 43.8314 29.6589Z" fill="url(#paint12_linear_322_6456)"/>
<path d="M33.4656 34.9032L34.9036 34.637C36.8244 34.2813 38.1307 32.4844 37.8765 30.5476L37.6859 29.0956C37.5932 28.3893 37.7099 27.6807 38.0069 27.0508L24.1399 13.1838L16.7061 23.6103L20.8752 27.7794L21.2486 32.1183L28.6806 39.5503C29.3091 39.223 29.8493 38.7121 30.211 38.045L30.9054 36.764C31.4341 35.789 32.3751 35.1051 33.4656 34.9032Z" fill="url(#paint13_linear_322_6456)"/>
<path d="M27.7231 21.1544H25.1102C24.6553 21.1544 24.2865 20.7856 24.2865 20.3307V13.6529C24.2865 12.8359 23.2253 12.5173 22.7753 13.1992L16.5917 22.5683C16.2303 23.116 16.623 23.8458 17.2791 23.8458H19.892C20.347 23.8458 20.7157 24.2146 20.7157 24.6695V31.3473C20.7157 32.1642 21.7769 32.4829 22.2269 31.801L28.4105 22.4319C28.772 21.8842 28.3793 21.1544 27.7231 21.1544Z" fill="url(#paint14_linear_322_6456)"/>
<path d="M28.4106 22.4317L22.2269 31.8009C21.9895 32.1607 21.5817 32.2419 21.2494 32.1184L23.8428 24.1011C24.0619 23.4238 23.557 22.7298 22.8452 22.7298H22.1411C21.4339 22.7298 20.9295 22.044 21.1401 21.3689L23.7837 12.8945C24.066 13.0119 24.2865 13.2809 24.2865 13.653V20.3308C24.2865 20.7856 24.655 21.1547 25.1103 21.1547H27.7232C28.379 21.1546 28.772 21.884 28.4106 22.4317Z" fill="url(#paint15_linear_322_6456)"/>
<path d="M20.7158 26.5873V31.3472C20.7158 32.1642 21.777 32.4828 22.227 31.8009L25.668 26.5873H20.7158Z" fill="url(#paint16_linear_322_6456)"/>
</g>
<defs>
<linearGradient id="paint0_linear_322_6456" x1="7.74403" y1="7.74372" x2="39.8309" y2="39.8306" gradientUnits="userSpaceOnUse">
<stop stop-color="#FEE97D"/>
<stop offset="1" stop-color="#FAC600"/>
</linearGradient>
<linearGradient id="paint1_linear_322_6456" x1="14.801" y1="14.8012" x2="26.2397" y2="26.2399" gradientUnits="userSpaceOnUse">
<stop stop-color="#FEE97D"/>
<stop offset="1" stop-color="#FAC600"/>
</linearGradient>
<linearGradient id="paint2_linear_322_6456" x1="22.5" y1="24.5674" x2="22.5" y2="38.4153" gradientUnits="userSpaceOnUse">
<stop stop-color="#FAC600" stop-opacity="0"/>
<stop offset="0.6899" stop-color="#D68C3D" stop-opacity="0.69"/>
<stop offset="1" stop-color="#C5715A"/>
</linearGradient>
<linearGradient id="paint3_linear_322_6456" x1="21.282" y1="2.77429" x2="25.0597" y2="2.77429" gradientUnits="userSpaceOnUse">
<stop stop-color="#FEE97D"/>
<stop offset="1" stop-color="#FAC600"/>
</linearGradient>
<linearGradient id="paint4_linear_322_6456" x1="21.282" y1="42.2258" x2="25.0597" y2="42.2258" gradientUnits="userSpaceOnUse">
<stop stop-color="#FEE97D"/>
<stop offset="1" stop-color="#FAC600"/>
</linearGradient>
<linearGradient id="paint5_linear_322_6456" x1="33.046" y1="5.83753" x2="36.1135" y2="8.04371" gradientUnits="userSpaceOnUse">
<stop stop-color="#FEE97D"/>
<stop offset="1" stop-color="#FAC600"/>
</linearGradient>
<linearGradient id="paint6_linear_322_6456" x1="10.0546" y1="37.8075" x2="13.1221" y2="40.0138" gradientUnits="userSpaceOnUse">
<stop stop-color="#FEE97D"/>
<stop offset="1" stop-color="#FAC600"/>
</linearGradient>
<linearGradient id="paint7_linear_322_6456" x1="40.7765" y1="15.0189" x2="41.9778" y2="18.6002" gradientUnits="userSpaceOnUse">
<stop stop-color="#FEE97D"/>
<stop offset="1" stop-color="#FAC600"/>
</linearGradient>
<linearGradient id="paint8_linear_322_6456" x1="3.3638" y1="27.6328" x2="4.56511" y2="31.214" gradientUnits="userSpaceOnUse">
<stop stop-color="#FEE97D"/>
<stop offset="1" stop-color="#FAC600"/>
</linearGradient>
<linearGradient id="paint9_linear_322_6456" x1="11.9361" y1="5.83788" x2="8.86859" y2="8.04406" gradientUnits="userSpaceOnUse">
<stop stop-color="#FEE97D"/>
<stop offset="1" stop-color="#FAC600"/>
</linearGradient>
<linearGradient id="paint10_linear_322_6456" x1="34.9274" y1="37.8079" x2="31.8599" y2="40.0141" gradientUnits="userSpaceOnUse">
<stop stop-color="#FEE97D"/>
<stop offset="1" stop-color="#FAC600"/>
</linearGradient>
<linearGradient id="paint11_linear_322_6456" x1="4.23361" y1="15.0329" x2="3.0323" y2="18.6142" gradientUnits="userSpaceOnUse">
<stop stop-color="#FEE97D"/>
<stop offset="1" stop-color="#FAC600"/>
</linearGradient>
<linearGradient id="paint12_linear_322_6456" x1="41.6463" y1="27.6467" x2="40.445" y2="31.228" gradientUnits="userSpaceOnUse">
<stop stop-color="#FEE97D"/>
<stop offset="1" stop-color="#FAC600"/>
</linearGradient>
<linearGradient id="paint13_linear_322_6456" x1="34.0669" y1="31.4479" x2="15.0081" y2="18.8007" gradientUnits="userSpaceOnUse">
<stop stop-color="#F6A96C" stop-opacity="0"/>
<stop offset="1" stop-color="#C5715A"/>
</linearGradient>
<linearGradient id="paint14_linear_322_6456" x1="18.918" y1="18.9169" x2="27.6733" y2="27.6721" gradientUnits="userSpaceOnUse">
<stop stop-color="#EAF6FF"/>
<stop offset="1" stop-color="#B3DAFE"/>
</linearGradient>
<linearGradient id="paint15_linear_322_6456" x1="28.9731" y1="23.24" x2="19.0908" y2="22.1371" gradientUnits="userSpaceOnUse">
<stop stop-color="#D8ECFE" stop-opacity="0"/>
<stop offset="0.7867" stop-color="#9BD1FE" stop-opacity="0.787"/>
<stop offset="1" stop-color="#8AC9FE"/>
</linearGradient>
<linearGradient id="paint16_linear_322_6456" x1="23.192" y1="27.0442" x2="23.192" y2="31.1708" gradientUnits="userSpaceOnUse">
<stop stop-color="#D8ECFE" stop-opacity="0"/>
<stop offset="0.7867" stop-color="#9BD1FE" stop-opacity="0.787"/>
<stop offset="1" stop-color="#8AC9FE"/>
</linearGradient>
<clipPath id="clip0_322_6456">
<rect width="45" height="45" fill="white"/>
</clipPath>
</defs>
</svg>
