<svg width="54" height="46" viewBox="0 0 54 46" fill="none" xmlns="http://www.w3.org/2000/svg">
<path d="M23.2656 20.6205L29.4795 22.6475L27.9343 25.339L23.2656 20.6205Z" fill="url(#paint0_linear_322_6616)"/>
<path d="M16.5851 34.6002L33.6255 17.5583L45.2606 29.1935L39.178 35.2762L31.1988 43.2554L30.5355 43.9186C28.809 45.6452 26.0874 45.8707 24.1003 44.4517L16.9802 39.3674C15.4037 38.2418 15.2153 35.97 16.5851 34.6002Z" fill="url(#paint1_linear_322_6616)"/>
<path d="M37.4148 34.6002L20.3744 17.5583L8.73926 29.1935L14.8219 35.2762L22.8011 43.2554L23.4644 43.9186C25.1909 45.6452 27.9125 45.8707 29.8996 44.4517L37.0198 39.3674C38.5962 38.2418 38.7845 35.97 37.4148 34.6002Z" fill="url(#paint2_linear_322_6616)"/>
<path d="M21.5008 41.9551L15.4182 35.8725L27.053 24.2377L20.3744 17.5583L8.73926 29.1935L14.8218 35.2761L22.801 43.2553L23.0676 43.5219L21.5008 41.9551Z" fill="url(#paint3_linear_322_6616)"/>
<path d="M14.8218 35.276L22.8011 43.2553L23.4643 43.9185C25.1908 45.645 27.9125 45.8706 29.8996 44.4516L30.9766 43.6826L19.8179 32.5238C18.7782 31.4841 17.0928 31.4842 16.0533 32.5239L14.0615 34.5157L14.8218 35.276Z" fill="url(#paint4_linear_322_6616)"/>
<path d="M19.8174 32.5238C18.7778 31.4841 17.0924 31.4842 16.0529 32.5239L13.9767 34.6002C12.607 35.9699 12.7952 38.2417 14.3717 39.3674L21.4918 44.4517C23.4789 45.8706 26.2005 45.6451 27.9271 43.9186L28.5903 43.2554C29.1312 42.7145 29.1312 41.8377 28.5903 41.2968L19.8174 32.5238Z" fill="url(#paint5_linear_322_6616)"/>
<path d="M27.0003 24.1844L23.2618 27.923C22.4992 28.6855 22.6103 29.9081 23.4004 30.5422L34.2231 41.3648L37.0202 39.3676C38.5966 38.2419 38.7849 35.97 37.4151 34.6003L27.0003 24.1844Z" fill="url(#paint6_linear_322_6616)"/>
<path d="M31.7401 28.9609L31.7778 28.9696C34.7913 29.6769 37.9562 28.7757 40.145 26.5868L41.3751 25.307L33.6265 17.5583L23.2618 27.923C22.3878 28.797 22.6613 30.276 23.7902 30.7796C25.1039 31.3656 26.6075 31.3533 27.9115 30.7455L31.7401 28.9609Z" fill="url(#paint7_linear_322_6616)"/>
<path d="M9.81191 33.1802L8.23393 31.6022C7.85301 31.2213 7.85301 30.6038 8.23393 30.223L21.6827 16.7742C22.0637 16.3932 22.681 16.3932 23.0619 16.7742L24.6399 18.3521C25.0208 18.7331 25.0208 19.3505 24.6399 19.7313L11.191 33.1802C10.8103 33.561 10.1927 33.561 9.81191 33.1802Z" fill="url(#paint8_linear_322_6616)"/>
<path d="M23.5843 17.2975L23.061 16.7742C22.68 16.3932 22.0627 16.3932 21.6818 16.7742L8.23295 30.223C7.85204 30.6039 7.85204 31.2213 8.23295 31.6022L9.81094 33.1802C10.1919 33.5611 10.8093 33.5611 11.1901 33.1802L23.5843 20.7862V17.2975Z" fill="url(#paint9_linear_322_6616)"/>
<path d="M7.0962 32.3385L1.16212 26.4044C0.76497 26.0072 0.76497 25.3632 1.16212 24.9662L16.4262 9.7021C16.8233 9.30495 17.4673 9.30495 17.8644 9.7021L23.7985 15.6362C24.1956 16.0333 24.1956 16.6774 23.7985 17.0744L8.53442 32.3385C8.13727 32.7356 7.49335 32.7356 7.0962 32.3385Z" fill="url(#paint10_linear_322_6616)"/>
<path d="M44.1888 33.1802L45.7668 31.6022C46.1477 31.2213 46.1477 30.6038 45.7668 30.223L32.3181 16.7742C31.9372 16.3932 31.3197 16.3932 30.9389 16.7742L29.3609 18.3521C28.98 18.7331 28.98 19.3505 29.3609 19.7313L42.8097 33.1802C43.1904 33.561 43.8079 33.561 44.1888 33.1802Z" fill="url(#paint11_linear_322_6616)"/>
<path d="M30.415 17.2975L30.9384 16.7742C31.3193 16.3932 31.9367 16.3932 32.3176 16.7742L45.7664 30.223C46.1473 30.6039 46.1473 31.2213 45.7664 31.6022L44.1884 33.1802C43.8075 33.5611 43.19 33.5611 42.8092 33.1802L30.415 20.7862V17.2975Z" fill="url(#paint12_linear_322_6616)"/>
<path d="M46.9044 32.3385L52.8385 26.4044C53.2357 26.0072 53.2357 25.3632 52.8385 24.9662L37.5745 9.7021C37.1773 9.30495 36.5333 9.30495 36.1362 9.7021L30.2022 15.6362C29.805 16.0333 29.805 16.6774 30.2022 17.0744L45.4662 32.3385C45.8634 32.7356 46.5073 32.7356 46.9044 32.3385Z" fill="url(#paint13_linear_322_6616)"/>
<path d="M38.3748 0.811986C38.9476 1.38474 38.9476 2.3133 38.3747 2.88595L30.0673 11.1924C28.536 12.7238 26.0444 12.7238 24.5142 11.1924L21.3661 8.04432C20.7934 7.47166 20.7933 6.54341 21.3659 5.97066C21.9385 5.3977 22.8673 5.3976 23.44 5.97045L26.5876 9.11805C26.9751 9.5055 27.6064 9.5055 27.9929 9.11805L36.3005 0.811374C36.8732 0.238721 37.8017 0.238721 38.3743 0.811476L38.3748 0.811986Z" fill="url(#paint14_linear_322_6616)"/>
<defs>
<linearGradient id="paint0_linear_322_6616" x1="25.7785" y1="21.0651" x2="29.3483" y2="24.636" gradientUnits="userSpaceOnUse">
<stop stop-color="#C1905B"/>
<stop offset="1" stop-color="#AF773F"/>
</linearGradient>
<linearGradient id="paint1_linear_322_6616" x1="32.4823" y1="38.6163" x2="30.289" y2="32.8347" gradientUnits="userSpaceOnUse">
<stop stop-color="#FFE7A5"/>
<stop offset="1" stop-color="#FFBF5C"/>
</linearGradient>
<linearGradient id="paint2_linear_322_6616" x1="22.3033" y1="29.3386" x2="28.6835" y2="46.8834" gradientUnits="userSpaceOnUse">
<stop stop-color="#C1905B"/>
<stop offset="1" stop-color="#AF773F"/>
</linearGradient>
<linearGradient id="paint3_linear_322_6616" x1="20.8557" y1="29.6771" x2="17.9603" y2="26.7807" gradientUnits="userSpaceOnUse">
<stop stop-color="#AF773F" stop-opacity="0"/>
<stop offset="1" stop-color="#9E6429"/>
</linearGradient>
<linearGradient id="paint4_linear_322_6616" x1="32.618" y1="46.1889" x2="26.8363" y2="42.002" gradientUnits="userSpaceOnUse">
<stop stop-color="#AF773F" stop-opacity="0"/>
<stop offset="1" stop-color="#9E6429"/>
</linearGradient>
<linearGradient id="paint5_linear_322_6616" x1="22.0356" y1="38.1839" x2="13.0644" y2="46.0923" gradientUnits="userSpaceOnUse">
<stop stop-color="#FFE7A5"/>
<stop offset="1" stop-color="#FFBF5C"/>
</linearGradient>
<linearGradient id="paint6_linear_322_6616" x1="33.3433" y1="37.0871" x2="27.1629" y2="27.6167" gradientUnits="userSpaceOnUse">
<stop stop-color="#AF773F" stop-opacity="0"/>
<stop offset="1" stop-color="#9E6429"/>
</linearGradient>
<linearGradient id="paint7_linear_322_6616" x1="32.251" y1="24.8473" x2="31.5531" y2="33.4209" gradientUnits="userSpaceOnUse">
<stop stop-color="#FFE7A5"/>
<stop offset="1" stop-color="#FFBF5C"/>
</linearGradient>
<linearGradient id="paint8_linear_322_6616" x1="18.4329" y1="20.9574" x2="8.79649" y2="40.3625" gradientUnits="userSpaceOnUse">
<stop stop-color="#E2EDF2"/>
<stop offset="1" stop-color="#9FC7E2"/>
</linearGradient>
<linearGradient id="paint9_linear_322_6616" x1="16.0609" y1="25.0379" x2="13.3961" y2="17.3744" gradientUnits="userSpaceOnUse">
<stop stop-color="#E2EDF2" stop-opacity="0"/>
<stop offset="1" stop-color="#4975AD"/>
</linearGradient>
<linearGradient id="paint10_linear_322_6616" x1="13.6483" y1="18.4845" x2="3.54657" y2="40.415" gradientUnits="userSpaceOnUse">
<stop stop-color="#4975AD"/>
<stop offset="1" stop-color="#114F77"/>
</linearGradient>
<linearGradient id="paint11_linear_322_6616" x1="35.5666" y1="20.9574" x2="45.2031" y2="40.3625" gradientUnits="userSpaceOnUse">
<stop stop-color="#F4CA3E"/>
<stop offset="1" stop-color="#DB9E36"/>
</linearGradient>
<linearGradient id="paint12_linear_322_6616" x1="37.9371" y1="25.0381" x2="40.6029" y2="17.3747" gradientUnits="userSpaceOnUse">
<stop stop-color="#DB9E36" stop-opacity="0"/>
<stop offset="1" stop-color="#9E6429"/>
</linearGradient>
<linearGradient id="paint13_linear_322_6616" x1="40.3511" y1="18.4845" x2="50.4529" y2="40.415" gradientUnits="userSpaceOnUse">
<stop stop-color="#FF5D00"/>
<stop offset="1" stop-color="#D54003"/>
</linearGradient>
<linearGradient id="paint14_linear_322_6616" x1="27.6486" y1="2.20788" x2="42.6711" y2="17.2303" gradientUnits="userSpaceOnUse">
<stop stop-color="#9EB644"/>
<stop offset="1" stop-color="#738611"/>
</linearGradient>
</defs>
</svg>
